<?xml version="1.0" encoding="utf-8"?>
<!-- Generator: Adobe Illustrator 17.0.0, SVG Export Plug-In . SVG Version: 6.00 Build 0)  -->
<!DOCTYPE svg PUBLIC "-//W3C//DTD SVG 1.1//EN" "http://www.w3.org/Graphics/SVG/1.1/DTD/svg11.dtd">
<svg version="1.1" id="Capa_1" xmlns="http://www.w3.org/2000/svg" xmlns:xlink="http://www.w3.org/1999/xlink" x="0px" y="0px"
	 width="16px" height="16px" viewBox="0 0 16 16" enable-background="new 0 0 16 16" xml:space="preserve">
<path fill="#FFFFFF" d="M2.6,5.6C3.5,3.5,5.6,2,8,2c3,0,5.4,2.2,5.9,5h2C15.4,3.1,12.1,0,8,0C5,0,2.4,1.6,1.1,4.1L0,3v4h4
	C4,7,2.6,5.6,2.6,5.6z"/>
<path fill="#FFFFFF" d="M16,9h-4.1l1.5,1.4c-0.9,2.1-3,3.6-5.5,3.6C5,14,2.5,11.8,2,9H0c0.5,3.9,3.9,7,7.9,7c3,0,5.6-1.7,7-4.1
	L16,13V9z"/>
</svg>
